# xmcd CD database file
#
# Track frame offsets:
#	150
#	16553
#	34935
#	59053
#	76673
#	90409
#	110310
#	131850
#	150188
#	173443
#	197633
#	217895
#	237101
#
# Disc length: 3395 seconds
#
# Revision: 0
# Processed by: cddbd v1.5.2PL0 Copyright (c) Steve Scherf et al.
# Submitted via: jetAudio 7
#
DISCID=900d410d
DTITLE=張毅  - 一聽鍾情
DYEAR=1900
DGENRE=장르 없음
TTITLE0=胭脂扣
TTITLE1=童话
TTITLE2=最後一夜
TTITLE3=微風細雨
TTITLE4=永遠 (韓劇《秘密情人》主題曲)
TTITLE5=戀人啊！
TTITLE6=兩只蝴蝶
TTITLE7=在水一方
TTITLE8=別説我的眼淚你無所謂
TTITLE9=兩邊
TTITLE10=火花 (韓劇《火花》主題曲)
TTITLE11=紅豆
TTITLE12=相思河畔
EXTD=
EXTT0=
EXTT1=
EXTT2=
EXTT3=
EXTT4=
EXTT5=
EXTT6=
EXTT7=
EXTT8=
EXTT9=
EXTT10=
EXTT11=
EXTT12=
PLAYORDER=
